<svg width="40" height="40" viewBox="0 0 40 40" fill="none" xmlns="http://www.w3.org/2000/svg">
<path fill-rule="evenodd" clip-rule="evenodd" d="M19.9997 36.6666C10.7947 36.6666 3.33301 29.2049 3.33301 19.9999C3.33301 10.7949 10.7947 3.33325 19.9997 3.33325C29.2047 3.33325 36.6663 10.7949 36.6663 19.9999C36.6663 29.2049 29.2047 36.6666 19.9997 36.6666ZM19.2163 14.1166C18.982 13.8825 18.6643 13.751 18.333 13.751C18.0018 13.751 17.6841 13.8825 17.4497 14.1166L12.4497 19.1166C12.2156 19.351 12.0841 19.6687 12.0841 19.9999C12.0841 20.3312 12.2156 20.6489 12.4497 20.8833L17.4497 25.8833C17.5641 26.0061 17.7021 26.1046 17.8554 26.1729C18.0088 26.2412 18.1743 26.2779 18.3421 26.2809C18.51 26.2839 18.6767 26.253 18.8323 26.1901C18.988 26.1273 19.1294 26.0337 19.2481 25.915C19.3668 25.7963 19.4603 25.6549 19.5232 25.4992C19.5861 25.3436 19.617 25.1769 19.614 25.009C19.611 24.8412 19.5743 24.6757 19.506 24.5224C19.4377 24.369 19.3392 24.231 19.2163 24.1166L16.3497 21.2499H26.6663C26.9979 21.2499 27.3158 21.1182 27.5502 20.8838C27.7846 20.6494 27.9163 20.3314 27.9163 19.9999C27.9163 19.6684 27.7846 19.3505 27.5502 19.116C27.3158 18.8816 26.9979 18.7499 26.6663 18.7499H16.3497L19.2163 15.8833C19.4504 15.6489 19.5819 15.3312 19.5819 14.9999C19.5819 14.6687 19.4504 14.351 19.2163 14.1166Z" fill="#0A93EF"/>
</svg>
