<svg width="24" height="25" viewBox="0 0 24 25" fill="none" xmlns="http://www.w3.org/2000/svg">
<g clip-path="url(#clip0_67_1165)">
<mask id="mask0_67_1165" style="mask-type:luminance" maskUnits="userSpaceOnUse" x="1" y="1" width="22" height="23">
<path d="M12 22.25C13.3135 22.2516 14.6143 21.9937 15.8278 21.4911C17.0412 20.9884 18.1434 20.2509 19.071 19.321C20.0009 18.3934 20.7384 17.2912 21.2411 16.0778C21.7437 14.8643 22.0016 13.5635 22 12.25C22.0016 10.9366 21.7437 9.63572 21.2411 8.42225C20.7384 7.20878 20.0009 6.10659 19.071 5.17901C18.1434 4.24909 17.0412 3.51162 15.8278 3.00897C14.6143 2.50631 13.3135 2.24839 12 2.25001C10.6866 2.24839 9.38572 2.50631 8.17225 3.00897C6.95878 3.51162 5.85659 4.24909 4.92901 5.17901C3.99909 6.10659 3.26162 7.20878 2.75897 8.42225C2.25631 9.63572 1.99839 10.9366 2.00001 12.25C1.99839 13.5635 2.25631 14.8643 2.75897 16.0778C3.26162 17.2912 3.99909 18.3934 4.92901 19.321C5.85659 20.2509 6.95878 20.9884 8.17225 21.4911C9.38572 21.9937 10.6866 22.2516 12 22.25Z" fill="white" stroke="white" stroke-width="2" stroke-linejoin="round"/>
<path d="M8 12.25L11 15.25L17 9.25" stroke="black" stroke-width="2" stroke-linecap="round" stroke-linejoin="round"/>
</mask>
<g mask="url(#mask0_67_1165)">
<path d="M0 0.25H24V24.25H0V0.25Z" fill="#0A93EF"/>
</g>
</g>
<defs>
<clipPath id="clip0_67_1165">
<rect width="24" height="24" fill="white" transform="translate(0 0.25)"/>
</clipPath>
</defs>
</svg>
