<svg xmlns="http://www.w3.org/2000/svg" xml:space="preserve" width="127.302" height="128.517" version="1.0" style="shape-rendering:geometricPrecision;text-rendering:geometricPrecision;image-rendering:optimizeQuality;fill-rule:evenodd;clip-rule:evenodd" viewBox="0 0 668.85 675.23"><defs><style>.fil0{fill:#264065}.fil2{fill:#39baa5}</style></defs><g id="Слой_x0020_1"><path class="fil0" d="M358.45 606.99c28.84 11.19 27.57 18.37 78.1 27.05 40.96 7.03 79.66 4.25 99.25 7.26-31.94 8.28-69.27 7.6-104.24 7.93-43.61.41-71.5 4.89-73.11-42.23zM96.62 576.98c32-12.53 41.06 32.85 11.92 44.11-29.5 11.41-41.66-32.46-11.92-44.11M602.43 426l-2.13-10.06c-18.18.32-38.6-7.11-40.82 12.84-3.71 33.41 9.62 70.16-12.45 68.59-23.14-1.65-2.92-49.93-14.22-64.64-4.65-6.05-13.52-7.13-18.75-1.64-11.36 11.9 8.93 61.41-19.36 58.71-23.97-2.29-6.87-48.94-15.18-65.02-3.85-7.46-7.44-7.12-15.84-11.45-2.43 1.28-2.82 1.12-4.47 2.65-13.64 18.55-25.61 36.59-39.05 55.52l-39.29 55.44c-16.23.15-35.47-15.46-50-19.15 1.26 16.27-.38 12.77 9.42 21.13 40.29 34.4 102.8 36.64 151.36 19.95 34.65-11.91 79.78-36.25 98.23-66.78 11.93-19.74 8.09-14.09 10.64-43.63 9.17-1.54 12.76 6.26 12.35 15.22-.99 21.56-18.02 41.51-30.52 54.45-6.17 6.39-8.64 9.48-14.93 14.25-42.46 32.2-89.7 52.39-147.54 49.9-52.47-2.26-65.08-20.4-85.84-28.98l10.8 108.17c-39.28.66-79.63-.06-119.07-.01-30.22.04-97.76 3.4-118.43 2.53 2.62-3.18.97-1.57 5.09-4.29l13.08-8.7c18.2-13.2 30.61-26.68 43.12-47.52 12.92-21.53 28.58-54.4 40.19-80.83 15.84-36.05 30.22-48.22 77.05-38.92 22.16 4.4 47.26 13.65 66.83 23.66 7.73 3.96 11.97 7.8 20.49 9.49 4.48-4.18 21.07-27.26 22.76-33.86-5.39-1.76-93.11-61.18-100.08-66.1-28.55-20.16-143.45-94.54-161.68-110.71 5.44 1.04 58.08 32.14 67.02 37.62l96.96 60.56c10.98 7.05 20.8 14.28 31.82 20.75 10.38 6.09 21.7 14.24 32.06 20.46 8.88 5.33 22.76 15.64 30.95 18.94-6.11-3.92-31.31-24.86-45.43-33.68-25.63-15.99-67.1-46.46-94.12-64.96-15.69-10.74-42.05-24.57-37.78-37.81 25.72-7.49 104.2 46.89 126.87 54.98l-135.96-91.44c-8.37-5.54-38.08-26.85-45.02-29.21l-26.08 38c-26.58 43.06-33.44 32.45-8.31 58.99 17.71 18.71 29.89 30.64 44.13 56.57 20.79 37.86 1.96 48.02-34.69 81.09-11.79 10.64-22.36 19.73-35.09 32.09-8.92 8.66-22.75 26.07-30.2 37-8.68 12.75-16.84 27.65-21.15 45.92-7.79 33.05-1.07 38.46 2.78 56.86-13.17 1.61-43.32 1.1-52.95 5.2 2.5 5.5 30.14 4.96 37.49 5.27 179.09 7.64 372.76 7.26 551.75 1.59 20.14-.64 62.6-.56 79.61-4.56-2.98-3.41-.72-2.25-5.89-3.82-.17-.05-4.97-.49-5.12-.5l-33.6-2.3c-15.7-.57-31.03-.86-46.34-2.25l7.67-67.9c2.42-22.04 5.46-44.36 7.49-66.92 1.52-16.8 4.76-13.3 12.72-24.81 16.68-24.11 31.5-69.08-3.34-71.97z"/><path d="M183.53 217.49c9.26 1.29 70.94 49.09 88.86 58.17l18.03-25.86c15.26-19.76 9.06-15.58 14.4-23.72.15-.24.41-.59.57-.82s.43-.56.61-.78.46-.54.65-.76c4.47-5.38 17.27-20.18 19.42-25.8l9.8-18.28c.17-.29.39-.66.55-.95 6.34-10.7 10.7-14.16 15.36-20.93 5.74-8.34 5.78-11.47 17.52-26.12 7.73-9.63 4.06-5.71 8.57-13.41l17.97-25.79c3.23-5.25 14.56-21.58 15.93-26.54-2.69-3.82-9.25-7.28-13.78-9.77-6.73 3.18-20.05 21.06-25.8 27.31-6.23 6.78-18.9 22.03-26.89 27.3 3.83-10.5 42.39-52.75 43.57-61.37-4.49-3.71-25.43-18.18-30.29-19.72-7.35 6.38-35.79 52.97-47.76 65.93 1.39-12.75 36.92-65.43 38.79-72.47-4.79-5.13-29.16-20.66-34.82-23.12-9.31 7.81-97.16 167.63-121.43 205.36-3.88 6.03-3.65 8.48-9.84 12.13z" style="fill:#299ad9"/><path class="fil2" d="m272.39 275.66 92.13 62.22c.41-6.67 3.07-6.52 6.78-13.08 6.2-10.99 10.9-15.17 16.87-23.94l106.57-154.87c-9.25 7.51-18.91 20.72-27.5 29.55-8.01 8.23-18.39 21.51-28.44 28.46 1.54-4.69 10.18-15.91 13.35-20.19l46.72-58.52c-10-10.7-68.46-47.6-87.1-59.38-1.37 4.95-12.7 21.29-15.93 26.54l-17.97 25.79c-4.52 7.7-.85 3.77-8.57 13.41-11.75 14.65-11.78 17.77-17.52 26.12-4.66 6.77-9.02 10.23-15.36 20.93-.17.29-.39.66-.55.95l-9.8 18.28c-2.15 5.62-14.95 20.41-19.42 25.8-.18.22-.47.54-.65.76-.17.22-.45.56-.61.78-.17.23-.42.58-.57.82-5.34 8.14.86 3.96-14.4 23.72l-18.03 25.86z"/><path d="M494.74 145.99 388.17 300.86c-5.97 8.77-10.67 12.96-16.87 23.94-3.71 6.57-6.37 6.41-6.78 13.08L427 380.85c7.71 5.18 14.3 8.92 20.92 15.24 3.86-2.58 74.03-92.92 79.15-99.4l58.46-74.38c5.88-7.77 17.18-17.07 18.49-26.96-4.97-4.72-26.98-20.66-32.34-21.42-13.23 16.74-68.87 84.54-81.59 92.54.9-6.51 12.99-19.69 16.52-25.38 5.42-8.76 11.76-16.46 17.8-24.42l27.57-35.25c3.87-4.81 7.66-7.24 7.33-15.25-3.78-4.81-20.88-17.07-27.04-19-6.72 2.91-17.91 20.73-23.58 27.48-5.82 6.93-17.96 24.82-23.01 27.86 3.97-12.62 36.59-55.01 37.79-61.16-3.22-2.66-11.35-9.05-16.01-9.88-4.33 3.62-10.18 9.86-12.71 14.52z" style="fill:#f3ba37"/><path class="fil2" d="M459.2 415.97c1.65-1.53 2.04-1.37 4.47-2.65 8.4 4.33 11.99 3.99 15.84 11.45 8.31 16.09-8.79 62.73 15.18 65.02 28.28 2.7 8-46.81 19.36-58.71 5.24-5.48 14.1-4.41 18.75 1.64 11.3 14.7-8.92 62.99 14.22 64.64 22.08 1.57 8.75-35.17 12.45-68.59 2.21-19.95 22.64-12.52 40.82-12.84l2.13 10.06c-.62-12 .53-9.34 3.28-12.76 3.64-4.54 3.71-4.72 2.03-12.1-6.61-6.81-19.18-4.66-30.23-4.66l-105.43.06-9.65 14.89c-2.03 2.82-1.19.81-3.23 4.55z"/><path class="fil0" d="M447.92 396.1c-6.62-6.32-13.22-10.07-20.92-15.24l-62.48-42.97-92.13-62.22c-17.92-9.08-79.6-56.88-88.86-58.17-2.51 3.29-5.1 7.41-6 11.75l132.28 87.9c19.04 12.28 126.32 86.29 135.08 87.2 1.39-2.97 3.03-4.7 3.02-8.24zM166.07 246.59l62.76 40.62c20.54 13.7 41.72 26.71 63.48 40.11l94.49 60.25c6.88 4.37 27.79 17.95 33.73 19.97-4.35-7.81-116.96-81.73-123.6-86.31-20.54-14.18-39.7-28.36-61.26-42.37l-47.16-31.7c-5.22-3.49-10.64-8.54-16.75-10.22-3.5 3.77-4.6 4.67-5.69 9.66zm86.66 310.72c6.3 4.26 11.12 2.56 16.82 8.78 4.97 5.43 3.79 10.59 7.31 16.1l2.84-4.78c8.72-21.85 9-10.81 22.41-20.1-2.05-1.88.5-.48-4.07-2.63-16.71-7.85-8.09 1.36-19.68-18.16l-1.5-2.07c-.24.37-.5.86-.65 1.16-2.94 5.64-3.87 10.6-8.23 14.25-5.71 4.79-11.27 2.85-15.24 7.44zm327.71-262.72c4.71 2.65 12.17 4.1 16.07 7.3 5.52 4.53 5.27 10.74 8.74 16.4 4.8-5 2.84-9.64 8.58-15.13 4.95-4.73 10.99-4.95 16.38-8.58l-1.82-1.33c-.21-.11-.69-.44-.95-.57-.27-.13-.7-.35-1.01-.48-3.49-1.52-8.94-1.93-12.97-5.86-4.28-4.16-4.39-11.56-8.21-16.3-7.14 7.79-1.22 15.83-15.79 20.32-3.68 1.13-6.59 1.36-9.02 4.22zM72.51 427.57c3.76-6.92 2.18-9.85 8.18-15.29 5.33-4.84 11.08-4.84 15.22-8.22-5.19-3.69-10.56-2-16.01-7.37-5.07-4.99-4.13-9.13-7.39-15.35-9.86 7.32 6.25 9.83-20.73 20.92l-2.34 1.16c-.22-.35-.82.4-1.2.65 4.74 4.42 9.31 2.5 15.58 8.71 5.82 5.76 4.1 11.77 8.69 14.8z"/><path d="M424.68 18.74c12.98 6.35 6.18-1.88 13.81 11.9 1.7 3.07.69 1.38 1.83 2.68 5.12-7.89-.51-5.57 9.54-12.18 3.35-2.2 2.58-.65 4.17-3.86-13.24-7-7.27-1.22-13.71-14.13-2.86 3.3-2.77 6.49-5.97 9.62-4.85 4.76-5.88 1.52-9.67 5.97" style="fill:#30ae94"/></g></svg>