<svg xmlns="http://www.w3.org/2000/svg" xml:space="preserve" width="344.238" height="128.517" version="1.0" style="shape-rendering:geometricPrecision;text-rendering:geometricPrecision;image-rendering:optimizeQuality;fill-rule:evenodd;clip-rule:evenodd" viewBox="0 0 4890.75 1825.9"><defs><style>.fil0{fill:#264065}.fil2{fill:#39baa5}.fil3{fill:#f3ba37}</style></defs><g id="Слой_x0020_1"><g id="_2740317138560"><path class="fil0" d="M969.29 1641.37c77.97 30.27 74.55 49.69 211.2 73.14 110.76 19.01 215.42 11.48 268.37 19.63-86.38 22.38-187.31 20.55-281.87 21.44-117.94 1.12-193.35 13.23-197.7-114.2zm-708.02-81.15c86.53-33.88 111.04 88.82 32.23 119.28-79.78 30.84-112.66-87.78-32.23-119.28m1367.77-408.28-5.76-27.21c-49.15.87-104.39-19.21-110.38 34.72-10.03 90.36 26.02 189.71-33.68 185.47-62.56-4.46-7.89-135.03-38.45-174.79-12.58-16.37-36.55-19.28-50.71-4.45-30.71 32.18 24.14 166.06-52.34 158.76-64.82-6.2-18.57-132.33-41.05-175.83-10.42-20.17-20.12-19.24-42.85-30.95-6.58 3.46-7.63 3.03-12.09 7.17-36.9 50.17-69.24 98.94-105.59 150.13l-106.26 149.9c-43.88.4-95.91-41.81-135.19-51.78 3.42 43.98-1.02 34.52 25.48 57.15 108.96 93.03 277.98 99.07 409.3 53.94 93.69-32.2 215.72-98.03 265.63-180.57 32.26-53.38 21.87-38.1 28.77-117.98 24.81-4.18 34.51 16.93 33.39 41.14-2.69 58.29-48.74 112.24-82.53 147.25-16.68 17.27-23.37 25.65-40.38 38.54-114.82 87.07-242.55 141.67-398.96 134.95-141.89-6.1-175.99-55.15-232.12-78.37l29.21 292.5c-106.23 1.78-215.33-.17-321.97-.03-81.72.1-264.35 9.2-320.24 6.84 7.08-8.59 2.63-4.24 13.77-11.6l35.37-23.51c49.2-35.69 82.77-72.15 116.59-128.5 34.95-58.22 77.29-147.1 108.67-218.56 42.82-97.49 81.72-130.39 208.36-105.24 59.93 11.9 127.81 36.92 180.7 63.99 20.92 10.7 32.36 21.08 55.39 25.67 12.11-11.31 56.97-73.72 61.54-91.55-14.57-4.77-251.77-165.44-270.61-178.75-77.21-54.52-387.91-255.64-437.19-299.36 14.72 2.82 157.07 86.9 181.23 101.73l262.19 163.76c29.68 19.07 56.24 38.62 86.05 56.12 28.07 16.48 58.68 38.5 86.7 55.34 24 14.4 61.55 42.29 83.69 51.21-16.52-10.59-84.65-67.23-122.85-91.07-69.32-43.23-181.44-125.63-254.52-175.66-42.42-29.05-113.7-66.43-102.17-102.23 69.54-20.24 281.78 126.81 343.06 148.68L558.59 761.64c-22.62-14.98-102.98-72.6-121.74-78.98l-70.51 102.75c-71.86 116.43-90.42 87.75-22.48 159.5 47.9 50.59 80.81 82.84 119.33 152.97 56.21 102.37 5.31 129.86-93.79 219.27-31.88 28.78-60.46 53.36-94.89 86.79-24.12 23.41-61.53 70.49-81.65 100.05-23.47 34.48-45.54 74.76-57.19 124.17-21.07 89.37-2.9 104.01 7.53 153.77-35.61 4.34-117.14 2.97-143.18 14.07 6.77 14.87 81.51 13.4 101.37 14.25 484.27 20.65 1007.99 19.63 1491.99 4.31 54.45-1.72 169.27-1.53 215.28-12.33-8.05-9.23-1.94-6.09-15.94-10.32-.46-.14-13.45-1.32-13.83-1.35l-90.86-6.22c-42.45-1.55-83.91-2.33-125.32-6.09l20.73-183.62c6.53-59.6 14.76-119.97 20.25-180.96 4.1-45.42 12.87-35.96 34.4-67.09 45.1-65.19 85.18-186.81-9.04-194.61z"/><path d="M496.28 588.11c25.03 3.5 191.82 132.73 240.29 157.3l48.77-69.92c41.26-53.43 24.49-42.13 38.94-64.14.42-.65 1.1-1.6 1.55-2.22.44-.61 1.18-1.51 1.65-2.12.48-.6 1.26-1.46 1.75-2.06 12.08-14.56 46.7-54.57 52.51-69.76l26.49-49.44c.45-.78 1.04-1.78 1.5-2.56 17.16-28.94 28.94-38.29 41.54-56.6 15.53-22.56 15.62-31.02 47.39-70.62 20.9-26.04 10.97-15.43 23.19-36.25l48.58-69.73c8.73-14.19 39.37-58.36 43.07-71.76-7.27-10.33-25.02-19.67-37.27-26.41-18.19 8.59-54.21 56.95-69.75 73.86-16.86 18.34-51.1 59.57-72.72 73.83 10.36-28.4 114.62-142.65 117.81-165.94-12.14-10.04-68.78-49.16-81.9-53.34-19.88 17.25-96.77 143.24-129.14 178.28 3.75-34.48 99.83-176.92 104.9-195.98C932.47 48.67 866.59 6.67 851.27.02 826.09 21.14 588.53 453.3 522.9 555.32c-10.48 16.3-9.87 22.94-26.6 32.8z" style="fill:#299ad9"/><path class="fil2" d="M736.56 745.4 985.7 913.66c1.11-18.03 8.31-17.62 18.34-35.38 16.78-29.71 29.49-41.03 45.63-64.74l288.17-418.78c-25.02 20.31-51.13 56.04-74.36 79.9-21.67 22.26-49.73 58.17-76.92 76.96 4.18-12.68 27.53-43.02 36.1-54.58L1349 338.79c-27.05-28.94-185.13-128.7-235.53-160.58-3.69 13.4-34.33 57.57-43.07 71.76l-48.58 69.73c-12.22 20.82-2.29 10.21-23.19 36.25-31.77 39.6-31.86 48.06-47.39 70.62-12.6 18.31-24.38 27.66-41.54 56.6-.46.78-1.05 1.78-1.5 2.56l-26.49 49.44c-5.81 15.19-40.43 55.2-52.51 69.76-.49.6-1.27 1.46-1.75 2.06-.47.61-1.21 1.51-1.65 2.12-.45.62-1.13 1.57-1.55 2.22-14.45 22.02 2.33 10.71-38.94 64.14l-48.77 69.92z"/><path class="fil3" d="m1337.84 394.77-288.17 418.78c-16.14 23.71-28.85 35.03-45.63 64.74-10.03 17.76-17.23 17.34-18.34 35.38l168.95 116.2c20.84 14 38.68 24.13 56.58 41.22 10.43-6.98 200.19-251.26 214.04-268.79l158.07-201.14c15.89-21.01 46.45-46.16 50-72.92-13.43-12.77-72.95-55.86-87.46-57.92-35.76 45.28-186.24 228.6-220.63 250.23 2.43-17.61 35.12-53.23 44.67-68.64 14.66-23.69 31.79-44.52 48.12-66.03l74.56-95.32c10.47-13.02 20.71-19.57 19.83-41.25-10.23-13.01-56.45-46.16-73.11-51.38-18.17 7.86-48.42 56.05-63.76 74.32-15.74 18.74-48.56 67.12-62.22 75.34 10.74-34.14 98.94-148.75 102.18-165.38-8.7-7.2-30.68-24.46-43.29-26.7-11.71 9.79-27.53 26.65-34.38 39.27z"/><path class="fil2" d="M1241.72 1124.83c4.46-4.15 5.51-3.72 12.09-7.17 22.72 11.71 32.42 10.78 42.85 30.95 22.48 43.5-23.77 169.64 41.05 175.83 76.48 7.3 21.62-126.58 52.34-158.76 14.16-14.83 38.13-11.93 50.71 4.45 30.56 39.76-24.11 170.32 38.45 174.79 59.7 4.25 23.65-95.11 33.68-185.47 5.99-53.93 61.23-33.85 110.38-34.72l5.76 27.21c-1.67-32.45 1.44-25.25 8.88-34.5 9.85-12.28 10.03-12.76 5.5-32.71-17.88-18.42-51.87-12.6-81.75-12.6l-285.1.16-26.1 40.26c-5.48 7.63-3.21 2.2-8.74 12.29z"/><path class="fil0" d="M1211.22 1071.08c-17.9-17.1-35.74-27.22-56.58-41.22l-168.95-116.2L736.55 745.4c-48.46-24.56-215.25-153.8-240.29-157.3-6.79 8.89-13.79 20.04-16.22 31.77l357.71 237.69c51.49 33.21 341.59 233.35 365.28 235.79 3.76-8.03 8.2-12.72 8.17-22.27zM449.08 666.81l169.7 109.83c55.54 37.05 112.81 72.23 171.64 108.45l255.51 162.92c18.6 11.81 75.16 48.53 91.21 54-11.76-21.11-316.27-221-334.24-233.4-55.54-38.36-107.36-76.7-165.64-114.57l-127.52-85.72c-14.11-9.43-28.77-23.11-45.28-27.64-9.46 10.18-12.43 12.62-15.38 26.13m234.32 840.22c17.04 11.51 30.07 6.93 45.47 23.73 13.45 14.67 10.26 28.63 19.76 43.54l7.68-12.92c23.57-59.09 24.32-29.24 60.59-54.35-5.54-5.07 1.34-1.29-11.02-7.1-45.2-21.23-21.87 3.67-53.2-49.1l-4.05-5.61c-.66 1-1.34 2.34-1.76 3.14-7.94 15.26-10.47 28.65-22.26 38.53-15.44 12.94-30.48 7.71-41.21 20.13zm886.16-710.42c12.73 7.16 32.92 11.08 43.47 19.74 14.94 12.25 14.24 29.04 23.62 44.35 12.99-13.53 7.69-26.07 23.21-40.9 13.38-12.8 29.73-13.38 44.3-23.19l-4.91-3.6c-.58-.31-1.85-1.18-2.58-1.54-.74-.36-1.91-.93-2.74-1.3-9.43-4.1-24.16-5.22-35.08-15.84-11.58-11.26-11.86-31.25-22.19-44.07-19.3 21.06-3.29 42.8-42.7 54.94-9.94 3.06-17.83 3.69-24.39 11.41zM196.09 1156.18c10.15-18.72 5.89-26.64 22.11-41.35 14.42-13.09 29.97-13.08 41.17-22.21-14.03-9.97-28.55-5.41-43.3-19.94-13.7-13.49-11.17-24.68-19.99-41.51-26.67 19.8 16.91 26.59-56.07 56.58l-6.33 3.13c-.61-.95-2.22 1.07-3.24 1.75 12.81 11.95 25.16 6.76 42.13 23.54 15.73 15.57 11.1 31.84 23.51 40.03z"/><path d="M1148.37 50.68c35.09 17.16 16.71-5.09 37.35 32.19 4.59 8.3 1.85 3.74 4.95 7.24 13.84-21.33-1.38-15.07 25.8-32.94 9.06-5.96 6.99-1.77 11.28-10.43-35.79-18.93-19.66-3.29-37.08-38.21-7.72 8.94-7.5 17.54-16.14 26.01-13.12 12.86-15.89 4.11-26.16 16.14" style="fill:#30ae94"/><path d="M2132.66 906.8V546.42h65.48V699.2h164.96V546.42h64.97V906.8h-64.97V755.54h-164.96V906.8zm400.66-32.23c-27.41-25.55-41.12-57.95-41.12-97.2s13.71-71.65 41.12-97.2 60.91-38.32 100.5-38.32c39.93 0 73.68 12.77 101.26 38.32 27.57 25.54 41.36 57.95 41.36 97.2s-13.7 71.65-41.11 97.2c-27.41 25.54-61.08 38.32-101.01 38.32s-73.6-12.77-101.01-38.32zm24.36-97.2c0 23.69 7.36 43.06 22.08 58.12s32.91 22.59 54.56 22.59c21.66 0 39.93-7.53 54.82-22.59s22.33-34.43 22.33-58.12c0-23.35-7.53-42.64-22.59-57.86s-33.25-22.84-54.57-22.84-39.42 7.61-54.31 22.84c-14.88 15.23-22.33 34.52-22.33 57.86zm279.35 129.43V647.93h61.92v30.46l-1.01 18.27h1.01q10.155-21.315 33.24-38.07c15.4-11.16 32.57-16.75 51.52-16.75 39.25 0 64.3 17.76 75.12 53.29h1.01c7.79-14.55 19.63-27.07 35.53-37.56 15.91-10.49 33.5-15.73 52.79-15.73 56.51 0 84.76 32.83 84.76 98.47v166.48h-63.95V752.48c0-16.58-2.54-29.35-7.61-38.32s-14.38-13.45-27.92-13.45c-20.98 0-37.22 8.88-48.73 26.64-11.51 17.77-17.26 38.83-17.26 63.2v116.23h-64.46V752.47c0-16.58-2.37-29.35-7.1-38.32-4.74-8.97-14.04-13.45-27.92-13.45-20.98 0-37.3 9.05-48.98 27.15-11.67 18.1-17.51 39-17.51 62.69v116.23h-64.46zm454.46-129.43c0-39.93 12.27-72.5 36.8-97.71s56.26-37.81 95.17-37.81c35.87 0 63.95 11.59 84.26 34.77 20.3 23.18 30.46 52.53 30.46 88.06q0 8.625-2.04 24.87h-178.16c2.03 21.66 10.32 38.49 24.87 50.5s32.15 18.02 52.79 18.02c25.72 0 50.42-9.48 74.1-28.43l25.38 46.19c-12.86 11.51-28.67 20.56-47.46 27.15-18.78 6.6-37.64 9.9-56.59 9.9q-62.43 0-101.01-39.33c-25.72-26.23-38.58-58.29-38.58-96.19zm68.02-31.98h114.2c-.34-16.92-5.33-30.29-14.98-40.1-9.64-9.82-21.91-14.72-36.8-14.72-16.24 0-29.95 4.99-41.11 14.98-11.17 9.98-18.27 23.26-21.32 39.84zm219.45 118.26 35.53-49.24c11.85 10.49 25.8 19.46 41.87 26.9 16.08 7.45 31.9 11.17 47.46 11.17 16.24 0 29.1-3.81 38.57-11.42 9.48-7.61 14.21-17.51 14.21-29.69 0-12.52-5.75-23.35-17.26-32.48-11.5-9.14-25.46-17.09-41.87-23.86s-32.91-14.21-49.49-22.33-30.62-19.63-42.13-34.52c-11.5-14.89-17.26-32.65-17.26-53.29q0-46.695 34.77-75.63c23.18-19.29 52.54-28.93 88.06-28.93 42.3 0 77.49 12.86 105.58 38.58l-28.93 53.29c-10.15-9.13-22.42-16.67-36.8-22.59-14.39-5.92-28.51-8.89-42.38-8.89-16.58 0-29.86 3.73-39.84 11.17s-14.98 17.42-14.98 29.95c0 12.18 5.75 22.67 17.26 31.47 11.5 8.8 25.46 16.41 41.87 22.84 16.42 6.43 32.91 13.62 49.49 21.57s30.62 19.37 42.13 34.26 17.26 32.99 17.26 54.31c0 30.46-10.66 55.83-31.98 76.14q-31.98 30.45-87.81 30.45c-23.01 0-45.34-4.23-67-12.69s-40.44-20.64-56.34-36.55zm304.22 43.15V546.42h64.46V672.3l-1.52 21.83h1.01c7.1-13.88 18.7-26.05 34.77-36.55 16.07-10.49 34.43-15.73 55.07-15.73 60.23 0 90.35 32.83 90.35 98.47V906.8h-64.46V753.51c0-17.25-2.96-30.37-8.89-39.33-5.92-8.97-16.5-13.45-31.72-13.45-22.34 0-40.35 8.03-54.06 24.11-13.71 16.07-20.56 36.63-20.56 61.67V906.8h-64.46zm317.92 0V647.93h64.46V906.8zm140.78 0V647.93h61.92v30.46l-1.01 18.27h1.01c6.77-13.88 17.93-26.48 33.5-37.81 15.57-11.34 35.03-17.01 58.37-17.01 60.23 0 90.35 32.83 90.35 98.47v166.48h-64.46V753.5c0-17.25-2.96-30.37-8.89-39.33-5.92-8.97-16.5-13.45-31.72-13.45-22.34 0-40.35 8.12-54.06 24.36s-20.56 36.37-20.56 60.4v121.31h-64.46zm302.18-129.43c0-39.93 12.27-72.5 36.8-97.71s56.26-37.81 95.17-37.81c35.87 0 63.95 11.59 84.26 34.77 20.3 23.18 30.46 52.53 30.46 88.06q0 8.625-2.04 24.87h-178.16c2.03 21.66 10.32 38.49 24.87 50.5s32.15 18.02 52.79 18.02c25.72 0 50.42-9.48 74.1-28.43l25.38 46.19c-12.86 11.51-28.67 20.56-47.46 27.15-18.78 6.6-37.64 9.9-56.59 9.9q-62.43 0-101.01-39.33c-25.72-26.23-38.58-58.29-38.58-96.19zm68.02-31.98h114.2c-.34-16.92-5.33-30.29-14.98-40.1-9.64-9.82-21.91-14.72-36.8-14.72-16.24 0-29.95 4.99-41.11 14.98-11.17 9.98-18.27 23.26-21.32 39.84zm-1998.41 271.82v65.04h29.44c10.88 0 19.3-2.81 25.24-8.47 5.97-5.65 8.94-13.69 8.94-24.13 0-10.33-2.97-18.32-8.94-23.98-5.94-5.66-14.36-8.47-25.24-8.47h-29.44zm-23.5-19.23h52.94c19.38 0 34.07 4.39 43.99 13.14 9.93 8.78 14.87 21.64 14.87 38.53 0 17.09-4.95 29.99-14.87 38.73-9.93 8.75-24.61 13.1-43.99 13.1h-29.44v69.55h-23.5V997.97zm267.61 23.07-31.77 86.13h63.66zm-13.21-23.07h26.55l65.96 173.06h-24.34l-15.79-44.39h-77.98l-15.79 44.39h-24.68zm199.4 0h23.5v173.06h-23.5zm151.76 0h31.57l76.67 144.77V997.98h22.79v173.06h-31.57l-76.68-144.77v144.77h-22.79V997.98zm235.32 0h146.47v19.71h-61.48v153.35h-23.5v-153.35h-61.48v-19.71zm250.71 0h23.5v173.06h-23.5zm151.76 0h31.57l76.67 144.77V997.98h22.79v173.06h-31.57l-76.68-144.77v144.77h-22.79V997.98zm377.28 148.33v-46.49h-38.22v-19.23h61.48v74.3c-9.06 6.41-19.03 11.28-29.91 14.56-10.92 3.29-22.55 4.91-34.9 4.91-27.06 0-48.23-7.92-63.5-23.7s-22.91-37.78-22.91-65.99c0-28.25 7.64-50.29 22.91-66.07 15.27-15.79 36.44-23.7 63.5-23.7 11.28 0 22 1.39 32.17 4.15 10.16 2.77 19.54 6.85 28.13 12.23v24.93c-8.66-7.32-17.84-12.82-27.62-16.54-9.73-3.68-19.98-5.54-30.74-5.54-21.16 0-37.07 5.89-47.71 17.72s-15.95 29.44-15.95 52.82c0 23.34 5.31 40.91 15.95 52.74 10.6 11.83 26.51 17.73 47.67 17.73 8.27 0 15.67-.71 22.16-2.14 6.49-1.42 12.31-3.68 17.49-6.69" style="fill:#264065;fill-rule:nonzero"/><path class="fil3" d="M4233.86 529.04c24.18 0 43.78 19.6 43.78 43.78 0 24.19-19.6 43.78-43.78 43.78-24.17 0-43.78-19.6-43.78-43.78s19.6-43.78 43.78-43.78"/></g></g></svg>